<svg xmlns="http://www.w3.org/2000/svg" viewBox="0 0 800 500"><rect width="800" height="500" fill="#F8FAFC"/><rect width="800" height="44" fill="#FFFFFF" rx="0"/><circle cx="20" cy="22" r="6" fill="#EF4444"/><circle cx="38" cy="22" r="6" fill="#FBBF24"/><circle cx="56" cy="22" r="6" fill="#10B981"/><rect x="0" y="44" width="200" height="456" fill="#FFFFFF" rx="0"/><rect x="12" y="60" width="176" height="40" rx="8" fill="#EFF6FF"/><rect x="12" y="116" width="176" height="36" rx="6" fill="#F1F5F9"/><rect x="12" y="160" width="176" height="36" rx="6" fill="#F1F5F9"/><rect x="12" y="204" width="176" height="36" rx="6" fill="#F1F5F9"/><rect x="220" y="60" width="560" height="32" rx="8" fill="#FFFFFF"/><rect x="220" y="100" width="170" height="100" rx="12" fill="#FFFFFF"/><rect x="400" y="100" width="170" height="100" rx="12" fill="#FFFFFF"/><rect x="580" y="100" width="170" height="100" rx="12" fill="#FFFFFF"/><rect x="220" y="216" width="370" height="200" rx="12" fill="#FFFFFF"/><rect x="600" y="216" width="150" height="200" rx="12" fill="#FFFFFF"/><rect x="240" y="236" width="120" height="160" rx="6" fill="#DBEAFE"/><rect x="380" y="256" width="60" height="140" rx="6" fill="#BFDBFE"/><rect x="450" y="276" width="60" height="120" rx="6" fill="#3B82F6"/><rect x="520" y="246" width="60" height="150" rx="6" fill="#DBEAFE"/></svg>